# xmcd
#
# Track frame offsets:
# 150
# 14193
# 26394
# 39160
# 49449
# 63724
# 79159
# 92296
# 104869
# 118302
#
# Disc length: 1718 seconds
#
#
# Revision: 0
# Processed by: cddbd v1.4PL0 Copyright (c) Steve Scherf et al.
# Submitted via: FreeRIP 2.00 
#
DISCID=8906b40a
DTITLE=Merle Haggard and The Strangers - Merle Haggard's Strangers - Honky Tonkin'
DYEAR=1900
DGENRE=Country
TTITLE0=Honky Tonkin'
TTITLE1=Song From Sleepwalk
TTITLE2=Just Sit Down And Cry (vocals, Bobby Wayne)
TTITLE3=I Don't Love Nobody
TTITLE4=Me And Bobby McGee
TTITLE5=Stumbling
TTITLE6=Raunchy
TTITLE7=Watchin' Scotty Grow
TTITLE8=Slow 'n Easy
TTITLE9=Almost To Tulsa
EXTD=Capitol ST-796
EXTT0=
EXTT1=
EXTT2=
EXTT3=
EXTT4=
EXTT5=
EXTT6=
EXTT7=
EXTT8=
EXTT9=
PLAYORDER=
